<svg width="88" height="7" viewBox="0 0 88 7" fill="none" xmlns="http://www.w3.org/2000/svg">
<path d="M1.49815 3.00889C1.49815 3.3962 1.54656 3.73106 1.64339 4.01347C1.74021 4.29588 1.86663 4.52988 2.02262 4.71546C2.17862 4.89836 2.35479 5.03418 2.55114 5.12294C2.75017 5.2117 2.95055 5.25608 3.15227 5.25608C3.36206 5.25608 3.55168 5.21439 3.72113 5.13101C3.89058 5.04494 4.03851 4.93332 4.16492 4.79615C4.29402 4.65629 4.40026 4.4976 4.48364 4.32009C4.56702 4.14257 4.62754 3.95968 4.66519 3.7714H5.62943C5.57025 4.08878 5.47208 4.38598 5.33491 4.66301C5.20043 4.94005 5.02829 5.18077 4.8185 5.38518C4.6114 5.58959 4.36799 5.75097 4.08826 5.86932C3.80854 5.98497 3.49654 6.0428 3.15227 6.0428C2.75689 6.0428 2.39783 5.97556 2.07507 5.84107C1.75501 5.7039 1.48201 5.50487 1.25608 5.24398C1.03015 4.98308 0.855322 4.66436 0.731599 4.28781C0.610566 3.91126 0.550049 3.48226 0.550049 3.00082C0.550049 2.75337 0.5756 2.51131 0.626703 2.27462C0.680496 2.03524 0.757151 1.80931 0.856667 1.59683C0.956184 1.38435 1.07991 1.18935 1.22784 1.01183C1.37846 0.831629 1.54925 0.676975 1.74021 0.547873C1.93118 0.416081 2.14366 0.313875 2.37766 0.241254C2.61434 0.168634 2.86986 0.132324 3.1442 0.132324C3.49385 0.132324 3.80585 0.182082 4.08019 0.281599C4.35454 0.381115 4.59526 0.519632 4.80236 0.697148C5.01215 0.871974 5.18698 1.08042 5.32684 1.32249C5.46939 1.56455 5.58236 1.82948 5.66573 2.11727H4.67326C4.53071 1.71383 4.33437 1.41394 4.08423 1.21759C3.83409 1.01856 3.52075 0.919043 3.1442 0.919043C2.90213 0.919043 2.68024 0.975525 2.47852 1.08849C2.27679 1.19876 2.10331 1.34938 1.95807 1.54035C1.81283 1.72862 1.69987 1.94917 1.61918 2.202C1.53849 2.45482 1.49815 2.72379 1.49815 3.00889Z" fill="white"/>
<path d="M9.84301 0.27353L11.9006 5.90159H10.9121L10.2989 4.25554H8.27361C8.17947 4.52719 8.07995 4.80288 7.97506 5.0826C7.87285 5.35963 7.77468 5.63263 7.68054 5.90159H6.68807L8.74564 0.27353H9.84301ZM9.29029 1.45562L8.57215 3.45671H10.0004L9.29029 1.45562Z" fill="white"/>
<path d="M14.0001 3.93681C14.0109 4.12778 14.0485 4.30395 14.1131 4.46533C14.1803 4.62401 14.2677 4.76119 14.3753 4.87684C14.4856 4.9925 14.6133 5.0826 14.7586 5.14715C14.9038 5.20901 15.0639 5.23994 15.2387 5.23994C15.392 5.23994 15.5386 5.2238 15.6784 5.19153C15.8183 5.15925 15.942 5.10815 16.0496 5.03822C16.1572 4.9656 16.2433 4.87146 16.3078 4.75581C16.3724 4.63746 16.4046 4.49357 16.4046 4.32412C16.4046 4.17081 16.3576 4.04171 16.2634 3.93681C16.172 3.83192 16.051 3.74181 15.9003 3.6665C15.7497 3.58851 15.5776 3.51857 15.3839 3.45671C15.1903 3.39216 14.9926 3.32627 14.7909 3.25903C14.5918 3.19178 14.3955 3.11647 14.2018 3.0331C14.0082 2.94703 13.836 2.84213 13.6854 2.71841C13.5348 2.59469 13.4124 2.44676 13.3183 2.27462C13.2268 2.10248 13.1811 1.89538 13.1811 1.65331C13.1811 1.40587 13.2295 1.18801 13.3264 0.999732C13.4232 0.808767 13.559 0.650079 13.7338 0.523666C13.9113 0.394564 14.1211 0.297737 14.3632 0.233186C14.6053 0.165945 14.8715 0.132324 15.162 0.132324C15.4202 0.132324 15.6489 0.159221 15.8479 0.213013C16.0469 0.264116 16.2204 0.334047 16.3683 0.422805C16.519 0.511563 16.6454 0.616459 16.7476 0.737492C16.8498 0.858526 16.9332 0.987628 16.9977 1.1248C17.0649 1.25928 17.1147 1.40049 17.147 1.54842C17.1793 1.69366 17.2008 1.83621 17.2115 1.97607H16.2473C16.2312 1.79586 16.1908 1.63986 16.1263 1.50807C16.0644 1.37628 15.9851 1.26735 15.8882 1.18128C15.7941 1.09521 15.6838 1.03201 15.5574 0.991663C15.4337 0.948628 15.3019 0.927111 15.162 0.927111C15.0356 0.927111 14.9105 0.94056 14.7868 0.967456C14.6658 0.991663 14.5569 1.03201 14.46 1.08849C14.3632 1.14497 14.2852 1.22028 14.226 1.31442C14.1669 1.40587 14.1373 1.51883 14.1373 1.65331C14.1373 1.80931 14.183 1.9411 14.2745 2.04869C14.3686 2.15359 14.491 2.24638 14.6416 2.32707C14.7922 2.40776 14.9643 2.48038 15.158 2.54493C15.3516 2.60679 15.548 2.67268 15.747 2.74262C15.9487 2.80986 16.1464 2.88651 16.3401 2.97258C16.5337 3.05596 16.7059 3.15816 16.8565 3.2792C17.0071 3.40023 17.1282 3.54547 17.2196 3.71492C17.3137 3.88437 17.3608 4.08743 17.3608 4.32412C17.3608 4.60922 17.307 4.85936 17.1994 5.07453C17.0945 5.28701 16.9479 5.46587 16.7597 5.61111C16.5714 5.75366 16.3468 5.86125 16.0859 5.93387C15.8277 6.00649 15.5453 6.0428 15.2387 6.0428C14.9617 6.0428 14.6913 5.99438 14.4278 5.89756C14.1669 5.80073 13.9329 5.66221 13.7258 5.48201C13.5214 5.29911 13.3546 5.07722 13.2255 4.81632C13.0991 4.55543 13.0318 4.26226 13.0238 3.93681H14.0001Z" fill="white"/>
<path d="M19.7952 0.27353V2.59737H22.3369V0.27353H23.2971V5.90159H22.3369V3.38006H19.7952V5.90159H18.8431V0.27353H19.7952Z" fill="white"/>
<path d="M26.2035 0.27353L27.777 4.68722L29.3867 0.27353H30.4518V5.90159H29.5037V2.18183L28.2046 5.90159H27.4018L26.0825 2.17376V5.90159H25.1304V0.27353H26.2035Z" fill="white"/>
<path d="M36.2792 0.27353V1.07639H33.2574V2.59737H36.0895V3.4083H33.2574V5.0826H36.4123V5.90159H32.3052V0.27353H36.2792Z" fill="white"/>
<path d="M42.2276 1.92766C42.2276 2.17241 42.163 2.40372 42.0339 2.62158C41.9048 2.83675 41.7098 3.02368 41.4489 3.18237C41.5753 3.2254 41.6829 3.28727 41.7717 3.36796C41.8604 3.44864 41.933 3.54009 41.9895 3.6423C42.046 3.74181 42.0864 3.8494 42.1106 3.96505C42.1375 4.08071 42.1509 4.19502 42.1509 4.30798V5.11487C42.1509 5.21977 42.1765 5.3408 42.2276 5.47797C42.2787 5.61515 42.3472 5.75635 42.4333 5.90159H41.3924C41.3521 5.83704 41.3185 5.7698 41.2916 5.69987C41.2674 5.62994 41.2485 5.5627 41.2351 5.49815C41.2216 5.43091 41.2122 5.3677 41.2068 5.30853C41.2042 5.24667 41.2028 5.19422 41.2028 5.15118V4.29184C41.2028 4.20847 41.188 4.12643 41.1584 4.04574C41.1315 3.96236 41.0872 3.8884 41.0253 3.82385C40.9634 3.75661 40.8814 3.70282 40.7792 3.66247C40.677 3.61944 40.5533 3.59792 40.408 3.59792H38.9718V5.90159H38.0196V0.27353H40.408C40.6985 0.27353 40.9567 0.321944 41.1826 0.41877C41.4086 0.515597 41.5982 0.64201 41.7515 0.798009C41.9075 0.954008 42.0258 1.13152 42.1065 1.33056C42.1872 1.5269 42.2276 1.72593 42.2276 1.92766ZM38.9718 2.79506H40.408C40.5237 2.79506 40.6326 2.77489 40.7348 2.73455C40.8397 2.69151 40.9312 2.63368 41.0092 2.56106C41.0898 2.48575 41.1531 2.39565 41.1988 2.29076C41.2445 2.18586 41.2674 2.07021 41.2674 1.94379C41.2674 1.82007 41.2458 1.70576 41.2028 1.60087C41.1598 1.49328 41.0993 1.40183 41.0213 1.32652C40.9459 1.24852 40.8558 1.18801 40.7509 1.14497C40.6461 1.09925 40.5317 1.07639 40.408 1.07639H38.9718V2.79506Z" fill="white"/>
<path d="M47.9904 0.27353V1.07639H44.9686V2.59737H47.8008V3.4083H44.9686V5.0826H48.1235V5.90159H44.0164V0.27353H47.9904Z" fill="white"/>
<path d="M55.9173 0.27353V1.07639H52.9842V2.59737H55.5259V3.4083H52.9842V5.90159H52.0321V0.27353H55.9173Z" fill="white"/>
<path d="M62.3982 3.07747C62.3982 3.5132 62.3404 3.91261 62.2247 4.27571C62.1091 4.63881 61.9396 4.95215 61.7164 5.21573C61.4958 5.47663 61.2228 5.6797 60.8974 5.82494C60.5719 5.97018 60.2008 6.0428 59.7839 6.0428C59.3697 6.0428 59.0012 5.97018 58.6784 5.82494C58.3557 5.6797 58.084 5.47663 57.8635 5.21573C57.6429 4.95215 57.4748 4.63881 57.3592 4.27571C57.2462 3.90992 57.1897 3.50782 57.1897 3.06941C57.1897 2.63368 57.2462 2.23562 57.3592 1.87521C57.4748 1.5148 57.6429 1.20549 57.8635 0.947284C58.084 0.689079 58.3557 0.488701 58.6784 0.34615C59.0012 0.2036 59.3697 0.132324 59.7839 0.132324C60.2008 0.132324 60.5719 0.2036 60.8974 0.34615C61.2228 0.488701 61.4958 0.690424 61.7164 0.951318C61.9396 1.20952 62.1091 1.52018 62.2247 1.88328C62.3404 2.24369 62.3982 2.64175 62.3982 3.07747ZM61.438 3.06941C61.438 2.72782 61.395 2.42524 61.3089 2.16165C61.2255 1.89538 61.1085 1.6708 60.9579 1.4879C60.81 1.30501 60.6352 1.16649 60.4334 1.07235C60.2317 0.975525 60.0152 0.927111 59.7839 0.927111C59.5499 0.927111 59.3334 0.975525 59.1343 1.07235C58.9353 1.16649 58.7618 1.30501 58.6139 1.4879C58.466 1.6708 58.3503 1.89538 58.2669 2.16165C58.1836 2.42524 58.1419 2.72782 58.1419 3.06941C58.1419 3.4083 58.1836 3.71223 58.2669 3.98119C58.3503 4.25016 58.466 4.47877 58.6139 4.66705C58.7618 4.85263 58.9353 4.99518 59.1343 5.0947C59.3334 5.19153 59.5499 5.23994 59.7839 5.23994C60.0152 5.23994 60.2317 5.19153 60.4334 5.0947C60.6352 4.99518 60.81 4.85263 60.9579 4.66705C61.1085 4.47877 61.2255 4.25016 61.3089 3.98119C61.395 3.71223 61.438 3.4083 61.438 3.06941Z" fill="white"/>
<path d="M68.1368 1.92766C68.1368 2.17241 68.0723 2.40372 67.9432 2.62158C67.8141 2.83675 67.6191 3.02368 67.3582 3.18237C67.4846 3.2254 67.5922 3.28727 67.6809 3.36796C67.7697 3.44864 67.8423 3.54009 67.8988 3.6423C67.9553 3.74181 67.9956 3.8494 68.0198 3.96505C68.0467 4.08071 68.0602 4.19502 68.0602 4.30798V5.11487C68.0602 5.21977 68.0857 5.3408 68.1368 5.47797C68.1879 5.61515 68.2565 5.75635 68.3426 5.90159H67.3017C67.2613 5.83704 67.2277 5.7698 67.2008 5.69987C67.1766 5.62994 67.1578 5.5627 67.1443 5.49815C67.1309 5.43091 67.1215 5.3677 67.1161 5.30853C67.1134 5.24667 67.1121 5.19422 67.1121 5.15118V4.29184C67.1121 4.20847 67.0973 4.12643 67.0677 4.04574C67.0408 3.96236 66.9964 3.8884 66.9345 3.82385C66.8727 3.75661 66.7906 3.70282 66.6884 3.66247C66.5862 3.61944 66.4625 3.59792 66.3173 3.59792H64.881V5.90159H63.9289V0.27353H66.3173C66.6078 0.27353 66.866 0.321944 67.0919 0.41877C67.3178 0.515597 67.5074 0.64201 67.6608 0.798009C67.8167 0.954008 67.9351 1.13152 68.0158 1.33056C68.0965 1.5269 68.1368 1.72593 68.1368 1.92766ZM64.881 2.79506H66.3173C66.4329 2.79506 66.5419 2.77489 66.6441 2.73455C66.749 2.69151 66.8404 2.63368 66.9184 2.56106C66.9991 2.48575 67.0623 2.39565 67.108 2.29076C67.1538 2.18586 67.1766 2.07021 67.1766 1.94379C67.1766 1.82007 67.1551 1.70576 67.1121 1.60087C67.069 1.49328 67.0085 1.40183 66.9305 1.32652C66.8552 1.24852 66.7651 1.18801 66.6602 1.14497C66.5553 1.09925 66.441 1.07639 66.3173 1.07639H64.881V2.79506Z" fill="white"/>
<path d="M75.0269 0.27353L77.0844 5.90159H76.096L75.4827 4.25554H73.4575C73.3633 4.52719 73.2638 4.80288 73.1589 5.0826C73.0567 5.35963 72.9585 5.63263 72.8644 5.90159H71.8719L73.9295 0.27353H75.0269ZM74.4741 1.45562L73.756 3.45671H75.1842L74.4741 1.45562Z" fill="white"/>
<path d="M79.5229 0.27353V5.0826H82.23V5.90159H78.5707V0.27353H79.5229Z" fill="white"/>
<path d="M84.6159 0.27353V5.0826H87.3231V5.90159H83.6638V0.27353H84.6159Z" fill="white"/>
</svg>
