<svg width="86" height="32" viewBox="0 0 86 32" fill="none" xmlns="http://www.w3.org/2000/svg">
<path d="M20.4898 14.1034V21.4132C20.4898 24.3025 19.591 26.6659 17.7935 28.5033C15.9028 30.434 13.4396 31.3993 10.4038 31.3993C7.36805 31.3993 4.90482 30.434 3.01412 28.5033C1.21662 26.6659 0.317871 24.3025 0.317871 21.4132V10.4285C0.317871 7.5392 1.21662 5.17582 3.01412 3.33838C4.90482 1.40773 7.36805 0.442412 10.4038 0.442412C13.5461 0.442412 16.0093 1.40773 17.7935 3.33838C19.591 5.26902 20.4898 7.49925 20.4898 10.0291L16.6951 11.8266H16.4953V10.4285C16.4953 8.64432 16.016 7.19967 15.0573 6.09454C13.8723 4.72312 12.3212 4.03741 10.4038 4.03741C8.48649 4.03741 6.93532 4.72312 5.7503 6.09454C4.79164 7.19967 4.31231 8.64432 4.31231 10.4285V21.4132C4.31231 23.1974 4.79164 24.642 5.7503 25.7472C6.93532 27.1186 8.48649 27.8043 10.4038 27.8043C12.3212 27.8043 13.8723 27.1186 15.0573 25.7472C16.016 24.642 16.4953 23.3305 16.4953 21.8126V17.7383H9.54502V17.5386L11.1628 14.1034H20.4898Z" fill="white"/>
<path d="M31.655 21.4132C31.655 23.1974 32.1344 24.642 33.093 25.7472C34.278 27.1186 35.8292 27.8043 37.7465 27.8043C39.6639 27.8043 41.215 27.1186 42.4001 25.7472C43.3587 24.642 43.8381 23.1974 43.8381 21.4132V10.4285C43.8381 8.64432 43.3587 7.19967 42.4001 6.09454C41.215 4.72312 39.6639 4.03741 37.7465 4.03741C35.8292 4.03741 34.278 4.72312 33.093 6.09454C32.1344 7.19967 31.655 8.64432 31.655 10.4285V21.4132ZM27.6606 21.4132V10.4285C27.6606 7.5392 28.5593 5.17582 30.3568 3.33838C32.2475 1.40773 34.7108 0.442412 37.7465 0.442412C40.7823 0.442412 43.2455 1.40773 45.1362 3.33838C46.9337 5.16251 47.8325 7.52588 47.8325 10.4285V21.4132C47.8325 24.3025 46.9337 26.6659 45.1362 28.5033C43.2455 30.434 40.7823 31.3993 37.7465 31.3993C34.7108 31.3993 32.2475 30.434 30.3568 28.5033C28.5593 26.6659 27.6606 24.3025 27.6606 21.4132Z" fill="white"/>
<path d="M58.9977 27.4049H64.6898C66.7003 27.4049 68.2981 26.7724 69.4831 25.5075C70.3486 24.5888 70.7813 23.3771 70.7813 21.8726C70.7813 20.3147 70.322 19.0032 69.4032 17.938C68.4046 16.7131 66.8335 16.1006 64.6898 16.1006H58.9977V27.4049ZM58.9977 12.5056H64.6898C66.0213 12.5056 67.0931 12.0729 67.9053 11.2074C68.6243 10.4352 68.9838 9.4299 68.9838 8.19162C68.9838 7.1797 68.5511 6.26763 67.6856 5.45543C66.9134 4.77638 65.9148 4.43685 64.6898 4.43685H58.9977V12.5056ZM55.0033 30.9999V1.84047L57.1204 0.841856H64.6898C66.94 0.841856 68.8107 1.45434 70.302 2.6793C72.0729 4.11729 72.9583 5.96139 72.9583 8.21159C72.9583 10.5017 71.9464 12.4058 69.9225 13.9236C70.575 14.2032 71.2207 14.6227 71.8598 15.1819C73.8038 16.9528 74.7758 19.1497 74.7758 21.7727C74.7758 24.409 73.9236 26.5727 72.2193 28.2637C70.3952 30.0878 67.8854 30.9999 64.6898 30.9999H55.0033Z" fill="white"/>
<path d="M81.5471 31.7987V1.84047L85.3419 0.0429688H85.5416V30.0012L81.7469 31.7987H81.5471Z" fill="white"/>
</svg>
